<svg xmlns="http://www.w3.org/2000/svg" width="38" height="38" fill="none" viewBox="0 0 38 38"><path fill="#000" d="M11.636 9.548c2.98 2.249 6.187 6.807 7.364 9.254v6.461c0-.137-.053.018-.167.353-.614 1.813-3.013 8.888-8.5 3.232-2.888-2.978-1.551-5.956 3.707-6.855-3.008.514-6.39-.336-7.318-3.668-.267-.959-.722-6.863-.722-7.66 0-3.994 3.485-2.739 5.636-1.117Zm14.728 0c-2.98 2.249-6.187 6.807-7.364 9.254v6.461c0-.137.053.018.167.353.614 1.813 3.013 8.888 8.5 3.232 2.888-2.978 1.551-5.956-3.708-6.855 3.009.514 6.39-.336 7.319-3.668.267-.959.722-6.863.722-7.66 0-3.994-3.485-2.739-5.636-1.117Z"/></svg>