<svg xmlns="http://www.w3.org/2000/svg" width="38" height="38" fill="none" viewBox="0 0 38 38"><path fill="#000" d="M19 6c-3.528 0-3.972.016-5.358.078-1.386.065-2.33.283-3.157.604a6.365 6.365 0 0 0-2.303 1.5 6.381 6.381 0 0 0-1.5 2.303c-.321.825-.54 1.771-.604 3.152C6.016 15.027 6 15.47 6 19.002c0 3.53.016 3.971.078 5.357.065 1.385.283 2.329.604 3.156.334.855.777 1.58 1.5 2.303a6.344 6.344 0 0 0 2.301 1.5c.83.321 1.772.54 3.156.604 1.388.062 1.83.078 5.361.078 3.531 0 3.971-.016 5.36-.078 1.382-.065 2.33-.283 3.157-.605a6.363 6.363 0 0 0 2.3-1.5 6.385 6.385 0 0 0 1.5-2.302c.32-.827.54-1.771.605-3.156.062-1.386.078-1.828.078-5.359 0-3.531-.016-3.973-.078-5.36-.065-1.384-.284-2.33-.605-3.155a6.38 6.38 0 0 0-1.5-2.303 6.355 6.355 0 0 0-2.302-1.5c-.829-.321-1.774-.54-3.157-.604C22.97 6.016 22.529 6 18.997 6h.005H19Zm-1.165 2.343h1.167c3.47 0 3.882.012 5.252.075 1.267.057 1.956.27 2.414.447.607.236 1.04.518 1.495.973.455.455.736.888.972 1.495.179.457.39 1.146.447 2.413.063 1.37.076 1.781.076 5.25 0 3.47-.013 3.883-.076 5.253-.057 1.267-.27 1.955-.447 2.413a4.015 4.015 0 0 1-.973 1.493 4.016 4.016 0 0 1-1.495.972c-.455.179-1.144.39-2.413.449-1.37.061-1.781.076-5.252.076s-3.884-.015-5.254-.076c-1.268-.059-1.955-.27-2.413-.449a4.027 4.027 0 0 1-1.495-.972 4.03 4.03 0 0 1-.975-1.495c-.177-.456-.39-1.145-.447-2.413-.062-1.37-.075-1.78-.075-5.253 0-3.471.013-3.881.075-5.25.059-1.268.27-1.957.449-2.416.235-.606.518-1.04.973-1.495a4.017 4.017 0 0 1 1.495-.971c.458-.18 1.145-.39 2.413-.449 1.2-.055 1.664-.071 4.087-.073v.003Zm8.105 2.158a1.56 1.56 0 1 0 0 3.12 1.56 1.56 0 0 0 0-3.12Zm-6.938 1.824a6.678 6.678 0 1 0-.208 13.353 6.678 6.678 0 0 0 .208-13.354Zm0 2.341a4.334 4.334 0 1 1 0 8.667 4.334 4.334 0 0 1 0-8.667Z"/></svg>