<svg xmlns="http://www.w3.org/2000/svg" width="38" height="38" fill="none" viewBox="0 0 38 38"><path fill="#000" d="M12.369 31.376V14.254h-5.69v17.122h5.69Zm-2.844-19.46c1.984 0 3.218-1.314 3.218-2.958C12.708 7.278 11.511 6 9.563 6c-1.948 0-3.22 1.28-3.22 2.958 0 1.644 1.234 2.957 3.144 2.957h.038Zm11.632 19.46v-9.562c0-.512.037-1.024.19-1.389.409-1.021 1.345-2.08 2.919-2.08 2.06 0 2.882 1.568 2.882 3.872v9.16h5.69v-9.821c0-5.261-2.806-7.707-6.55-7.707-3.02 0-4.373 1.659-5.131 2.827v.06h-.038l.038-.06v-2.422h-5.688c.07 1.607 0 17.122 0 17.122h5.688Z"/></svg>