<svg xmlns="http://www.w3.org/2000/svg" width="38" height="38" fill="none" viewBox="0 0 38 38"><path fill="#000" d="M18.963 7c3.268.027 6.412.38 8.244 1.222 0 0 3.632 1.625 3.632 7.169 0 0 .047 4.091-.505 6.931-.351 1.803-3.141 3.776-6.343 4.159-1.67.199-3.314.38-5.067.3a29.896 29.896 0 0 1-5.128-.682c0 .278.016.544.05.792.373 2.829 2.807 3 5.112 3.079 2.326.08 4.397-.573 4.397-.573l.096 2.101s-1.628.875-4.527 1.035c-1.598.088-3.582-.041-5.893-.653-5.013-1.327-5.877-6.67-6.009-12.092-.04-1.61-.015-3.128-.015-4.397 0-5.544 3.634-7.17 3.634-7.17 1.832-.84 4.974-1.194 8.241-1.221h.081Zm3.694 4.331c-1.361 0-2.392.524-3.073 1.57l-.663 1.112-.664-1.112c-.681-1.046-1.712-1.57-3.073-1.57-1.176 0-2.123.415-2.846 1.222-.702.806-1.051 1.896-1.051 3.268v6.713h2.658V16.02c0-1.374.579-2.072 1.734-2.072 1.278 0 1.92.828 1.92 2.462v3.568h2.643v-3.568c0-1.634.642-2.462 1.92-2.462 1.155 0 1.734.698 1.734 2.072v6.515h2.658v-6.713c0-1.371-.35-2.462-1.05-3.268-.724-.807-1.671-1.222-2.847-1.222Z"/></svg>