<svg xmlns="http://www.w3.org/2000/svg" width="38" height="38" fill="none" viewBox="0 0 38 38"><path fill="#000" d="M19.088 5a13.842 13.842 0 0 1 9.88 4.1h-.001a13.918 13.918 0 0 1 4.102 9.88c-.007 7.705-6.277 13.975-13.974 13.975h-.007c-2.334 0-4.63-.585-6.68-1.7L5 33.197l1.976-7.24a14.023 14.023 0 0 1-1.864-6.99C5.12 11.27 11.392 5 19.088 5Zm.007 2.358c-6.404 0-11.615 5.213-11.616 11.603a11.562 11.562 0 0 0 1.775 6.177l.275.442-1.174 4.288 4.396-1.152.423.253a11.584 11.584 0 0 0 5.914 1.622c6.399 0 11.61-5.204 11.617-11.617a11.557 11.557 0 0 0-3.398-8.213 11.562 11.562 0 0 0-8.212-3.403Zm-4.95 5.159c.234 0 .469 0 .67.011.214.01.502-.085.784.6.294.694.99 2.416 1.078 2.59.086.175.14.376.026.612-.114.233-.172.38-.348.581-.175.201-.369.455-.522.61-.175.175-.356.362-.155.71.208.348.903 1.493 1.943 2.418 1.332 1.193 2.458 1.56 2.806 1.736.349.173.557.146.758-.088.2-.227.87-1.018 1.105-1.365.23-.35.463-.29.784-.175.323.12 2.036.964 2.384 1.139.349.174.583.26.67.408.088.146.088.844-.201 1.662-.294.816-1.688 1.56-2.358 1.662-.602.086-1.359.127-2.196-.14a19.465 19.465 0 0 1-1.99-.738c-3.504-1.515-5.788-5.038-5.961-5.272-.176-.235-1.428-1.89-1.428-3.612 0-1.721.897-2.566 1.218-2.915a1.285 1.285 0 0 1 .933-.434Z"/></svg>