<svg xmlns="http://www.w3.org/2000/svg" width="1024" height="1024" viewBox="0 0 1024 1024"><path fill="#4A4A4A" fill-rule="evenodd" d="m362.35 305-12.892 63.477h-70.054l-53.212 269.4h-71.343l53.213-269.4H135L147.893 305h214.458zm181.318 101.956L404.421 666.91c-2.292 4.03-5.014 8.493-8.166 13.387a81.329 81.329 0 0 1-10.744 13.386c-8.309 8.348-17.12 14.322-26.431 17.92-9.312 3.599-19.985 5.398-32.018 5.398h-24.927l12.463-61.318h13.753c6.303 0 11.317-1.799 15.042-5.398 3.725-3.598 7.306-8.708 10.744-15.329l9.885-18.568-32.233-209.43h66.185L410.868 536.5l62.317-129.545h70.483zm204.796 56.036c0 2.591-.072 5.398-.215 8.42-.144 3.023-.43 6.694-.86 11.012-.43 4.318-1.218 9.644-2.364 15.977a4450.505 4450.505 0 0 1-4.297 23.318c-5.158 25.91-10.315 46.492-15.472 61.75-5.158 15.257-11.747 26.916-19.77 34.977-8.882 8.924-18.122 14.825-27.72 17.704a101.935 101.935 0 0 1-29.44 4.318c-10.315 0-19.698-1.799-28.15-5.397-8.452-3.599-15.544-8.853-21.274-15.762l-18.48 93.704h-67.045l61.028-307.452h64.466l-3.868 19.431c6.303-6.909 13.968-12.306 22.993-16.193 9.025-3.886 18.982-5.83 29.87-5.83 12.033 0 21.99 2.088 29.869 6.262 7.879 4.174 14.039 9.284 18.48 15.33 4.441 6.045 7.593 12.522 9.455 19.431 1.862 6.91 2.794 13.243 2.794 19zm-70.054 23.75c0-1.727-.143-3.886-.43-6.477-.286-2.591-1.074-5.11-2.363-7.557-1.29-2.447-3.295-4.534-6.017-6.261-2.722-1.728-6.518-2.591-11.39-2.591-6.303 0-11.531 1.151-15.686 3.454-4.154 2.303-7.736 5.83-10.744 10.58-3.009 4.75-5.516 10.795-7.521 18.136-2.006 7.34-4.012 15.905-6.017 25.693-1.146 5.47-2.22 11.587-3.223 18.352-1.003 6.765-1.505 12.307-1.505 16.625 0 1.727.144 3.886.43 6.477.287 2.591 1.075 5.11 2.364 7.557 1.29 2.447 3.295 4.534 6.017 6.261 2.722 1.728 6.518 2.591 11.389 2.591 6.303 0 11.532-1.151 15.687-3.454 4.154-2.303 7.735-5.83 10.744-10.58 3.008-4.75 5.515-10.795 7.52-18.136 2.007-7.34 4.012-15.905 6.018-25.693 1.146-5.47 2.22-11.587 3.223-18.352 1.003-6.765 1.504-12.307 1.504-16.625zM889 330.425l-10.315 52.25h-67.044l10.314-52.25H889zm-16.761 84.204-44.267 223.248h-67.045l44.267-223.248h67.045zm-150.681 308.46-6.301 5.273c-2.06-2.675-4.22-4.7-6.479-6.076-2.258-1.376-5.21-2.064-8.856-2.064-3.25 0-6.221.593-8.916 1.777-2.695 1.185-5.19 2.885-7.49 5.102a18.9 18.9 0 0 0-3.09 3.898c-.872 1.452-1.684 3.229-2.437 5.33-.753 2.102-1.486 4.624-2.2 7.567-.713 2.942-1.465 6.477-2.258 10.604a269.362 269.362 0 0 0-1.367 6.993 232.85 232.85 0 0 0-.892 5.274c-.237 1.528-.396 2.846-.475 3.955a42.876 42.876 0 0 0-.119 3.038c0 2.292.416 4.375 1.248 6.248.832 1.872 1.962 3.458 3.388 4.757 1.427 1.3 3.11 2.293 5.053 2.98 1.941.689 4.022 1.033 6.24 1.033 3.963 0 7.351-.726 10.165-2.179 2.813-1.452 5.567-3.439 8.262-5.96l4.992 6.075c-3.487 3.134-7.112 5.465-10.877 6.993-3.764 1.529-8.103 2.293-13.017 2.293-3.328 0-6.44-.497-9.332-1.49-2.892-.994-5.448-2.427-7.667-4.3-2.22-1.872-3.963-4.165-5.231-6.878-1.268-2.713-1.902-5.827-1.902-9.343 0-.764.04-1.662.119-2.694.08-1.032.238-2.293.475-3.783a497.559 497.559 0 0 1 2.259-13.012c.951-4.815 1.803-8.904 2.556-12.267.753-3.362 1.585-6.267 2.496-8.712.912-2.446 1.962-4.567 3.15-6.363 1.19-1.796 2.656-3.535 4.399-5.216 2.774-2.675 6.142-4.834 10.105-6.477 3.962-1.643 8.123-2.465 12.482-2.465 5.23 0 9.51.917 12.838 2.751 3.33 1.835 6.222 4.28 8.679 7.337zm90.465-9.401-17 81.624h-8.677l13.076-62.135-31.859 47.461h-7.37l-12.364-48.15-13.076 62.824h-8.678l17-81.624h8.32l14.147 56.747 38.04-56.747h8.441zM878 722.4l-6.182 5.044a29.033 29.033 0 0 0-3.15-3.038 17.992 17.992 0 0 0-3.626-2.293c-1.347-.65-2.853-1.146-4.517-1.49-1.664-.344-3.566-.516-5.706-.516-3.25 0-6.182.516-8.797 1.547-2.615 1.032-4.815 2.408-6.598 4.127-1.783 1.72-3.15 3.688-4.1 5.904-.952 2.217-1.427 4.471-1.427 6.764 0 3.21 1.129 5.675 3.388 7.395 2.258 1.72 5.17 3 8.737 3.84l7.965 1.72c6.42 1.452 11.075 3.687 13.968 6.706 2.893 3.02 4.339 7.394 4.339 13.127 0 4.05-.852 7.604-2.556 10.661-1.704 3.057-4.002 5.637-6.895 7.738-2.893 2.102-6.26 3.688-10.104 4.758-3.844 1.07-7.945 1.605-12.304 1.605-5.944 0-10.937-.879-14.979-2.637s-7.766-4.624-11.174-8.598l6.538-5.503c2.536 3.134 5.409 5.484 8.619 7.05 3.21 1.568 7.152 2.351 11.828 2.351 3.09 0 5.983-.42 8.678-1.261 2.695-.84 5.052-2.006 7.073-3.497 2.021-1.49 3.626-3.286 4.815-5.388 1.188-2.101 1.783-4.413 1.783-6.936 0-2.14-.317-3.916-.951-5.33-.634-1.414-1.486-2.599-2.556-3.554-1.07-.956-2.338-1.72-3.804-2.293a33.426 33.426 0 0 0-4.696-1.433l-7.965-1.834a42.48 42.48 0 0 1-6.3-1.95 22.01 22.01 0 0 1-5.884-3.438c-1.784-1.453-3.25-3.23-4.399-5.331-1.15-2.102-1.724-4.643-1.724-7.624 0-2.828.575-5.77 1.724-8.827 1.15-3.057 2.932-5.847 5.35-8.369 2.417-2.522 5.547-4.586 9.39-6.19 3.845-1.606 8.46-2.408 13.85-2.408 4.359 0 8.42.707 12.185 2.12 3.764 1.415 7.152 3.841 10.164 7.28z"/></svg>